<?xml version="1.0" encoding="UTF-8"?>
<svg width="32px" height="32px" viewBox="0 0 32 32" version="1.1" xmlns="http://www.w3.org/2000/svg" xmlns:xlink="http://www.w3.org/1999/xlink">
    <!-- Generator: Sketch 51.1 (57501) - http://www.bohemiancoding.com/sketch -->
    <title>svg/black/npxs</title>
    <desc>Created with Sketch.</desc>
    <defs></defs>
    <g id="black/npxs" stroke="none" stroke-width="1" fill="none" fill-rule="evenodd">
        <path d="M16,32 C7.163444,32 0,24.836556 0,16 C0,7.163444 7.163444,0 16,0 C24.836556,0 32,7.163444 32,16 C32,24.836556 24.836556,32 16,32 Z M14.9669687,12.3955 L9.57146875,7 L7,9.57146875 L12.3955,14.9666875 L14.9669687,12.3955 Z M16.0070312,13.4212188 L16,13.4285313 L15.9926875,13.4209375 L13.4206562,15.992125 L13.4285312,16 L13.4209375,16.0075938 L15.9929687,18.5785 L16,18.5711875 L16.00675,18.5782188 L18.5787812,16.0073125 L18.5714687,16 L18.5790625,15.9924063 L16.0070312,13.4212188 Z M19.6042188,14.96725 L25,9.57146875 L22.4285313,7 L17.0324688,12.3960625 L19.6042188,14.96725 Z M12.3955,17.0330313 L7,22.4285313 L9.57146875,25 L14.9669687,19.6042188 L12.3955,17.0330313 Z M17.0324688,19.6036563 L22.4285313,25 L25,22.4285313 L19.6042188,17.03275 L17.0324688,19.6036563 Z" id="Combined-Shape" fill="#000000" fill-rule="nonzero"></path>
    </g>
</svg>