<?xml version="1.0" encoding="UTF-8"?>
<svg width="32px" height="32px" viewBox="0 0 32 32" version="1.1" xmlns="http://www.w3.org/2000/svg" xmlns:xlink="http://www.w3.org/1999/xlink">
    <!-- Generator: Sketch 51.1 (57501) - http://www.bohemiancoding.com/sketch -->
    <title>svg/black/stq</title>
    <desc>Created with Sketch.</desc>
    <defs></defs>
    <g id="black/stq" stroke="none" stroke-width="1" fill="none" fill-rule="evenodd">
        <path d="M16,32 C7.163444,32 0,24.836556 0,16 C0,7.163444 7.163444,0 16,0 C24.836556,0 32,7.163444 32,16 C32,24.836556 24.836556,32 16,32 Z M7.60014988,12.0330116 L7.6064549,12.0330116 C6.78044138,12.1261939 6.03306762,12.566365 5.5510208,13.243574 C4.95834962,14.214546 5.04031478,15.6583938 5.96715163,16.3897753 C6.59765288,16.9130913 7.43621956,17.0076665 8.14238097,17.3733573 C8.33783636,17.4616274 8.39458147,17.7138279 8.3126163,17.9029783 C8.22434613,18.0479936 8.03519575,18.0606036 7.89018046,18.0101635 C7.39838948,17.8651482 7.09574888,17.4048823 6.61656792,17.253562 C6.31392732,17.1526818 5.97345664,17.1589868 5.68342606,17.2850871 C5.28621027,17.4553224 4.98987468,17.8651482 5.0024847,18.3064991 C4.97095964,18.8361202 5.24207518,19.3468262 5.66451102,19.6557718 C6.19744139,20.0710903 6.8437501,20.3151048 7.51818472,20.3556282 C8.05411079,20.3619332 8.6089519,20.3997633 9.12596293,20.229528 C9.66305726,20.0736161 10.1443526,19.7673372 10.5130657,19.3468262 C11.1211348,18.5442738 11.2466179,17.4752548 10.8409263,16.5537056 C10.5256757,15.8412392 9.79429426,15.4377184 9.10704789,15.1476878 C8.69091706,14.9585374 8.2117361,14.9207074 7.84604537,14.6432868 C7.67581003,14.5297966 7.68842006,14.2649861 7.85235039,14.1514958 C8.14238097,14.0506156 8.41349651,14.252376 8.63417195,14.4163064 C8.90581675,14.6532368 9.24143092,14.8045922 9.59883887,14.8513522 C10.0086647,14.8954873 10.4500156,14.6748119 10.6391659,14.2965111 C10.8976715,13.75428 10.7085211,13.0544236 10.2482552,12.6824279 C9.51056869,12.0897567 8.52068172,11.9195214 7.60014988,12.0330116 Z M19.4157434,13.243574 C18.8293773,13.8425502 18.4069414,14.6054567 18.2619261,15.4314134 C18.113655,16.2696516 18.2213133,17.1331154 18.5708718,17.9092833 C19.0348002,18.922162 19.8800615,19.7107703 20.9226415,20.1034277 C21.9876694,20.5127827 23.1733163,20.4718198 24.207553,19.9899375 C24.3462633,19.9331924 24.5164986,19.8449222 24.6552089,19.9584124 C24.9830695,20.1727828 25.3298452,20.3997633 25.7396711,20.3745432 C26.199937,20.3997633 26.5782377,20.0655976 26.8241332,19.7062119 C27.0089889,19.3939254 27.0503437,19.0171372 26.9376234,18.6721899 C26.8493533,18.3506342 26.5908478,18.1173487 26.3890874,17.8651482 C26.5719327,17.3607472 26.7547781,16.8374312 26.7673881,16.2888951 C26.8394039,15.0674786 26.3325875,13.8833498 25.3992004,13.0922537 C24.6122341,12.3798403 23.5855875,11.990345 22.5241146,12.0014865 C21.3766024,11.9825715 20.2227851,12.4239224 19.4157434,13.243574 Z M11.8812534,12.3923973 C11.3453274,12.6509028 11.149872,13.3570643 11.3642424,13.8929903 C11.4854933,14.1802166 11.720759,14.4040617 12.0136587,14.5108816 C12.4423995,14.7000319 12.9215805,14.6117618 13.3755414,14.6558968 C13.4133715,16.0429996 13.3755414,17.4301024 13.3881514,18.8172051 C13.3868501,19.0925016 13.46099,19.3628942 13.6025219,19.5990267 C14.0249577,20.2862731 15.0968098,20.3745432 15.664261,19.8260072 C15.9605966,19.5296716 16.0930018,19.1009307 16.0803918,18.6847999 L16.0803918,15.5953437 C16.0711681,15.2861699 16.0795884,14.9767216 16.1056118,14.6685069 C16.6352329,14.6432868 17.2279041,14.750472 17.681865,14.4163064 C18.2493161,14.0506156 18.3501963,13.1931339 17.9340655,12.6824279 C17.6503399,12.2789071 17.1081088,12.247382 16.660453,12.222162 L13.192696,12.222162 C12.7513452,12.228467 12.2910792,12.215857 11.8812534,12.3923973 Z" id="Combined-Shape" fill="#000000" fill-rule="nonzero"></path>
    </g>
</svg>