<?xml version="1.0" encoding="UTF-8"?>
<svg width="32px" height="32px" viewBox="0 0 32 32" version="1.1" xmlns="http://www.w3.org/2000/svg" xmlns:xlink="http://www.w3.org/1999/xlink">
    <!-- Generator: Sketch 51.1 (57501) - http://www.bohemiancoding.com/sketch -->
    <title>svg/color/npxs</title>
    <desc>Created with Sketch.</desc>
    <defs></defs>
    <g id="color/npxs" stroke="none" stroke-width="1" fill="none" fill-rule="evenodd">
        <circle id="Oval" fill="#F9D91F" fill-rule="nonzero" cx="16" cy="16" r="16"></circle>
        <path d="M14.9669687,12.3955 L12.3955,14.9666875 L7,9.57146875 L9.57146875,7 L14.9669687,12.3955 Z M16.0070313,13.4212188 L18.5790625,15.9924063 L18.5714687,16 L18.5787812,16.0073125 L16.00675,18.5782188 L16,18.5711875 L15.9929687,18.5785 L13.4209375,16.0075938 L13.4285312,16 L13.4206563,15.992125 L15.9926875,13.4209375 L16,13.4285313 L16.0070313,13.4212188 Z M19.6042187,14.96725 L17.0324687,12.3960625 L22.4285312,7 L25,9.57146875 L19.6042187,14.96725 Z M12.3955,17.0330313 L14.9669687,19.6042187 L9.57146875,25 L7,22.4285312 L12.3955,17.0330313 Z M17.0324687,19.6036563 L19.6042187,17.03275 L25,22.4285312 L22.4285312,25 L17.0324687,19.6036563 Z" id="Combined-Shape" fill="#FFFFFF"></path>
    </g>
</svg>