<?xml version="1.0" encoding="UTF-8"?>
<svg width="32px" height="32px" viewBox="0 0 32 32" version="1.1" xmlns="http://www.w3.org/2000/svg" xmlns:xlink="http://www.w3.org/1999/xlink">
    <!-- Generator: Sketch 51.1 (57501) - http://www.bohemiancoding.com/sketch -->
    <title>svg/color/stq</title>
    <desc>Created with Sketch.</desc>
    <defs></defs>
    <g id="color/stq" stroke="none" stroke-width="1" fill="none" fill-rule="evenodd">
        <circle id="Oval" fill="#5AC9FF" fill-rule="nonzero" cx="16" cy="16" r="16"></circle>
        <path d="M7.60014988,12.0330116 C8.52068172,11.9195214 9.51056869,12.0897567 10.2482552,12.6824279 C10.7085211,13.0544236 10.8976715,13.75428 10.6391659,14.2965111 C10.4500156,14.6748119 10.0086647,14.8954873 9.59883887,14.8513522 C9.24143092,14.8045922 8.90581675,14.6532368 8.63417195,14.4163064 C8.41349651,14.252376 8.14238097,14.0506156 7.85235039,14.1514958 C7.68842006,14.2649861 7.67581003,14.5297966 7.84604537,14.6432868 C8.2117361,14.9207074 8.69091706,14.9585374 9.10704789,15.1476878 C9.79429426,15.4377184 10.5256757,15.8412392 10.8409263,16.5537056 C11.2466179,17.4752548 11.1211348,18.5442738 10.5130657,19.3468262 C10.1443526,19.7673372 9.66305726,20.0736161 9.12596293,20.229528 C8.6089519,20.3997633 8.05411079,20.3619332 7.51818472,20.3556282 C6.8437501,20.3151048 6.19744139,20.0710903 5.66451102,19.6557718 C5.24207518,19.3468262 4.97095964,18.8361202 5.0024847,18.3064991 C4.98987468,17.8651482 5.28621027,17.4553224 5.68342606,17.2850871 C5.97345664,17.1589868 6.31392732,17.1526818 6.61656792,17.253562 C7.09574888,17.4048823 7.39838948,17.8651482 7.89018046,18.0101635 C8.03519575,18.0606036 8.22434613,18.0479936 8.3126163,17.9029783 C8.39458147,17.7138279 8.33783636,17.4616274 8.14238097,17.3733573 C7.43621956,17.0076665 6.59765288,16.9130913 5.96715163,16.3897753 C5.04031478,15.6583938 4.95834962,14.214546 5.5510208,13.243574 C6.03306762,12.566365 6.78044138,12.1261939 7.6064549,12.0330116 L7.60014988,12.0330116 Z M19.4157434,13.243574 C20.2227851,12.4239224 21.3766024,11.9825715 22.5241146,12.0014865 C23.5855875,11.990345 24.6122341,12.3798403 25.3992004,13.0922537 C26.3325875,13.8833498 26.8394039,15.0674786 26.7673881,16.2888951 C26.7547781,16.8374312 26.5719327,17.3607472 26.3890874,17.8651482 C26.5908478,18.1173487 26.8493533,18.3506342 26.9376234,18.6721899 C27.0503437,19.0171372 27.0089889,19.3939254 26.8241332,19.7062119 C26.5782377,20.0655976 26.199937,20.3997633 25.7396711,20.3745432 C25.3298452,20.3997633 24.9830695,20.1727828 24.6552089,19.9584124 C24.5164986,19.8449222 24.3462633,19.9331924 24.207553,19.9899375 C23.1733163,20.4718198 21.9876694,20.5127827 20.9226415,20.1034277 C19.8800615,19.7107703 19.0348002,18.922162 18.5708718,17.9092833 C18.2213133,17.1331154 18.113655,16.2696516 18.2619261,15.4314134 C18.4069414,14.6054567 18.8293773,13.8425502 19.4157434,13.243574 Z M11.8812534,12.3923973 C12.2910792,12.215857 12.7513452,12.228467 13.192696,12.222162 L16.660453,12.222162 C17.1081088,12.247382 17.6503399,12.2789071 17.9340655,12.6824279 C18.3501963,13.1931339 18.2493161,14.0506156 17.681865,14.4163064 C17.2279041,14.750472 16.6352329,14.6432868 16.1056118,14.6685069 C16.0795884,14.9767216 16.0711681,15.2861699 16.0803918,15.5953437 L16.0803918,18.6847999 C16.0930018,19.1009307 15.9605966,19.5296716 15.664261,19.8260072 C15.0968098,20.3745432 14.0249577,20.2862731 13.6025219,19.5990267 C13.46099,19.3628942 13.3868501,19.0925016 13.3881514,18.8172051 C13.3755414,17.4301024 13.4133715,16.0429996 13.3755414,14.6558968 C12.9215805,14.6117618 12.4423995,14.7000319 12.0136587,14.5108816 C11.720759,14.4040617 11.4854933,14.1802166 11.3642424,13.8929903 C11.149872,13.3570643 11.3453274,12.6509028 11.8812534,12.3923973 Z" id="Shape" fill="#FFFFFF" fill-rule="nonzero"></path>
    </g>
</svg>